<?xml version="1.0" encoding="UTF-8"?>
<svg id="katman_1" data-name="katman 1" xmlns="http://www.w3.org/2000/svg" version="1.1" viewBox="0 0 486.3 232.44">
  <defs>
    <style>
      .cls-1 {
        fill: #000;
        fill-rule: evenodd;
        stroke-width: 0px;
      }
    </style>
  </defs>
  <path id="Layer" class="cls-1" d="M0,114.67h167.05v117.77H0v-117.77ZM47.39,176.06l27.44,27.44,48.19-48.17-11.71-11.73-36.48,36.48-15.73-15.73-11.71,11.71ZM49.41,62.45v35.4h-28.27v-35.4C21.14,27.99,49.13,0,83.59,0s62.31,27.99,62.45,62.45v35.4h-28.27v-35.4c0-18.84-15.34-34.18-34.18-34.18s-34.32,15.34-34.32,34.18h.14ZM257.63,141.6c-16.15,0-32.71-5.8-45.5-17.23l15.62-18.59c9.02,7.41,20.2,12.51,31.77,12.51s16.82-4.44,16.82-10.49c0-8.49-7.13-10.77-18.56-15.48l-15.48-6.6c-13.46-4.97-25.58-15.2-25.58-32.71,0-19.92,18.03-35.65,43.89-35.65,14.54,0,28.94,5.52,39.84,15.73l-13.73,17.09c-8.35-6.05-15.89-9.55-27.6-9.55-9.02,0-15.07,3.91-15.07,10.9s8.07,9.96,19.64,14.12l14.54,6.21c15.76,5.91,25.72,15.6,25.72,32.57,0,19.78-16.7,37.15-46.3,37.15ZM395.85,104.46c0,19.92-16.68,37.15-46.42,37.15-16.17,0-32.71-5.8-45.5-17.23l15.62-18.59c9.02,7.41,20.17,12.51,31.74,12.51s16.84-4.44,16.84-10.49c0-8.49-7.13-10.77-18.59-15.48l-15.48-6.6c-13.46-4.97-25.56-15.2-25.56-32.71,0-19.92,18.03-35.65,43.87-35.65,14.54,0,28.94,5.52,39.84,15.73l-13.73,17.09c-8.33-6.05-15.87-9.55-27.58-9.55-9.02,0-15.07,3.91-15.07,10.9s8.07,9.96,19.64,14.12l14.54,6.21c15.87,5.91,25.69,15.6,25.83,32.57ZM486.3,116.55v22.75h-80.21V19.51h26.91v97.05h53.3ZM249,195.57c0,8.21-6.85,14.81-18.31,14.81-7.66,0-14.12-2.97-18.84-7.68l3.91-4.58c3.91,3.91,9.29,6.46,15.2,6.46,7.13,0,11.32-3.36,11.32-8.21,0-5.52-4.05-7.13-9.29-9.41l-7.41-3.24c-5.11-2.02-11.18-5.77-11.18-13.32,0-7.94,7.15-13.73,16.98-13.73,6.58,0,12.24,2.69,16.01,6.46l-3.5,4.3c-3.5-2.97-7.41-4.85-12.79-4.85-6.05,0-10.1,2.83-10.1,7.54,0,4.99,4.85,6.74,9.29,8.63l7.27,3.08c6.33,2.55,11.43,6.07,11.43,13.73ZM269.59,203.78h26.25v5.66h-32.82v-51.83h32.02v5.52h-25.44v16.29h21.55v5.66h-21.55v18.7ZM341.2,198.79l3.77,4.05c-4.03,4.69-9.16,7.52-16.01,7.52-12.79,0-22.61-9.96-22.61-26.91s9.82-26.91,23.28-26.91c6.19,0,11.18,2.97,14.15,6.33l-3.77,4.16c-2.55-2.83-6.07-4.72-10.37-4.72-9.96,0-16.42,8.07-16.42,21s6.46,21.28,16.42,21.28c4.85,0,8.49-2.02,11.57-5.8ZM383.34,190.05v-32.43h6.46v32.3c0,14.93-7.27,20.59-17.37,20.59s-17.51-5.77-17.51-20.59v-32.3h6.6v32.43c0,10.77,4.72,14.68,10.9,14.68s11.04-3.91,11.04-14.68h-.14ZM426.82,186.81l13.18,22.61h-7.52l-12.51-21.92h-9.29v21.92h-6.6v-51.8h16.15c10.51,0,18.03,3.75,18.03,14.54,0,8.07-4.69,12.9-11.43,14.65ZM431.67,172.15c0-6.88-4.46-9.29-12.54-9.29h-8.6v19.25h8.6c8.07,0,12.54-3.24,12.54-9.96ZM459.11,203.78h26.25v5.64h-32.96v-51.8h32.16v5.52h-25.44v16.29h21.55v5.64h-21.55v18.72Z"/>
</svg>